<svg width="20" height="19" viewBox="0 0 20 19" fill="none" xmlns="http://www.w3.org/2000/svg">
<g clip-path="url(#clip0_4616_112104)">
<path fill-rule="evenodd" clip-rule="evenodd" d="M1.99219 4.84988C1.99219 4.41934 2.34121 4.07031 2.77176 4.07031H16.804C17.2346 4.07031 17.5836 4.41934 17.5836 4.84988C17.5836 5.28043 17.2346 5.62945 16.804 5.62945H2.77176C2.34121 5.62945 1.99219 5.28043 1.99219 4.84988Z" fill="#686870"/>
<path fill-rule="evenodd" clip-rule="evenodd" d="M8.23015 2.51226C8.0234 2.51226 7.82511 2.5944 7.67891 2.7406C7.53272 2.88679 7.45058 3.08508 7.45058 3.29183V4.85097C7.45058 5.28152 7.10156 5.63054 6.67101 5.63054C6.24047 5.63054 5.89144 5.28152 5.89144 4.85097V3.29183C5.89144 2.67157 6.13784 2.07671 6.57644 1.63812C7.01503 1.19952 7.60989 0.953125 8.23015 0.953125H11.3484C11.9687 0.953125 12.5636 1.19952 13.0021 1.63812C13.4407 2.07671 13.6871 2.67157 13.6871 3.29183V4.85097C13.6871 5.28152 13.3381 5.63054 12.9076 5.63054C12.477 5.63054 12.128 5.28152 12.128 4.85097V3.29183C12.128 3.08508 12.0459 2.88679 11.8997 2.7406C11.7535 2.5944 11.5552 2.51226 11.3484 2.51226H8.23015ZM4.3323 4.0714C4.76285 4.0714 5.11187 4.42043 5.11187 4.85097V15.765C5.11187 15.9717 5.19401 16.17 5.3402 16.3162C5.4864 16.4624 5.68469 16.5445 5.89144 16.5445H13.6871C13.8939 16.5445 14.0922 16.4624 14.2384 16.3162C14.3846 16.17 14.4667 15.9717 14.4667 15.765V4.85097C14.4667 4.42043 14.8157 4.0714 15.2463 4.0714C15.6768 4.0714 16.0259 4.42043 16.0259 4.85097V15.765C16.0259 16.3852 15.7795 16.9801 15.3409 17.4187C14.9023 17.8573 14.3074 18.1037 13.6871 18.1037H5.89144C5.27118 18.1037 4.67632 17.8573 4.23773 17.4187C3.79913 16.9801 3.55273 16.3852 3.55273 15.765V4.85097C3.55273 4.42043 3.90176 4.0714 4.3323 4.0714Z" fill="#686870"/>
</g>
<defs>
<clipPath id="clip0_4616_112104">
<rect width="18.7097" height="18.7097" fill="white" transform="translate(0.433594 0.171875)"/>
</clipPath>
</defs>
</svg>
