<svg width="46" height="47" viewBox="0 0 46 47" fill="none" xmlns="http://www.w3.org/2000/svg">
<rect y="0.234375" width="46" height="46" rx="12" fill="white"/>
<path fill-rule="evenodd" clip-rule="evenodd" d="M14.6723 18.1181C13.993 19.2677 13.7694 20.7746 13.9854 22.07C14.41 24.6178 16.6197 26.9138 18.9641 28.6501C20.1074 29.4969 21.2252 30.1685 22.0586 30.6287C22.4433 30.8411 22.7654 31.0074 22.999 31.1241C23.2326 31.0074 23.5547 30.8411 23.9394 30.6287C24.7728 30.1685 25.8906 29.4969 27.034 28.6502C29.3784 26.9139 31.588 24.6178 32.0127 22.07C32.2286 20.7746 32.005 19.2677 31.3256 18.1181C30.6716 17.0113 29.6052 16.2344 27.9991 16.2344C26.3919 16.2344 25.4126 17.0164 24.799 17.8344C24.4861 18.2516 24.2741 18.6741 24.1408 18.994C24.0747 19.1526 24.0295 19.2824 24.0018 19.3685C23.988 19.4115 23.9786 19.4433 23.9733 19.4621L23.9683 19.4801L23.9687 19.4785C23.9685 19.4796 23.9686 19.479 23.9683 19.4801C23.9682 19.4804 23.9684 19.4799 23.9683 19.4801C23.8556 19.9231 23.4565 20.2344 22.999 20.2344C22.5415 20.2344 22.1425 19.9239 22.0299 19.4809C22.0298 19.4807 22.0299 19.4812 22.0299 19.4809L22.0247 19.462C22.0193 19.4433 22.01 19.4115 21.9962 19.3685C21.9685 19.2823 21.9233 19.1526 21.8572 18.994C21.7239 18.6741 21.5119 18.2516 21.199 17.8344C20.5855 17.0164 19.6062 16.2344 17.9989 16.2344C16.3927 16.2344 15.3263 17.0113 14.6723 18.1181ZM22.999 19.2344C22.0288 19.4769 22.029 19.4773 22.0291 19.4777L22.0296 19.4798L22.0299 19.4809M22.999 16.9153C22.9361 16.8222 22.8695 16.7284 22.799 16.6344C21.9125 15.4524 20.3918 14.2344 17.9989 14.2344C15.605 14.2344 13.9214 15.4574 12.9504 17.1007C12.0048 18.701 11.7284 20.6941 12.0126 22.3988C12.5744 25.7693 15.3648 28.4732 17.7738 30.2574C19.0071 31.1708 20.2044 31.8895 21.0918 32.3795C21.5364 32.6251 21.9056 32.8144 22.1655 32.9433C22.2955 33.0078 22.3984 33.0572 22.4699 33.0911C22.5057 33.108 22.5337 33.121 22.5532 33.1301L22.5763 33.1407L22.583 33.1438L22.5852 33.1447C22.5855 33.1449 22.5865 33.1453 22.999 32.2344L22.5865 33.1453C22.8487 33.2641 23.1493 33.2641 23.4115 33.1453L22.999 32.2344C23.4115 33.1453 23.4112 33.1455 23.4115 33.1453L23.4149 33.1438L23.4217 33.1407L23.4447 33.1301C23.4643 33.121 23.4923 33.108 23.528 33.0911C23.5996 33.0572 23.7024 33.0078 23.8325 32.9433C24.0924 32.8144 24.4616 32.6251 24.9062 32.3795C25.7936 31.8895 26.9909 31.1708 28.2243 30.2574C30.6333 28.4733 33.4237 25.7693 33.9855 22.3988C34.2696 20.6941 33.9932 18.701 33.0475 17.1006C32.0765 15.4574 30.3929 14.2344 27.9991 14.2344C25.6062 14.2344 24.0855 15.4524 23.199 16.6344C23.1285 16.7284 23.0619 16.8222 22.999 16.9153Z" fill="#1D1D1F"/>
</svg>
