<svg width="46" height="47" viewBox="0 0 46 47" fill="none" xmlns="http://www.w3.org/2000/svg">
<rect y="0.234375" width="46" height="46" rx="12" fill="white"/>
<path fill-rule="evenodd" clip-rule="evenodd" d="M23 14.2344C21.1508 14.2344 19.3727 14.9854 18.0582 16.3299C16.7428 17.6751 16 19.5043 16 21.4162C16 24.2044 17.7751 26.9177 19.7336 29.0321C20.6938 30.0686 21.6572 30.9174 22.3815 31.5073C22.6165 31.6987 22.8255 31.8621 23 31.9952C23.1745 31.8621 23.3835 31.6987 23.6185 31.5073C24.3428 30.9174 25.3062 30.0686 26.2664 29.0321C28.2249 26.9177 30 24.2044 30 21.4162C30 19.5043 29.2572 17.6751 27.9418 16.3299C26.6273 14.9854 24.8492 14.2344 23 14.2344ZM23 33.2344C22.4367 34.0606 22.4364 34.0604 22.4361 34.0602L22.4334 34.0584L22.4273 34.0542L22.4065 34.0398C22.389 34.0276 22.364 34.0102 22.3321 33.9876C22.2684 33.9425 22.1771 33.8769 22.0621 33.7919C21.8322 33.6221 21.5071 33.3745 21.1185 33.0581C20.3428 32.4264 19.3062 31.5138 18.2664 30.3912C16.2249 28.1874 14 24.9916 14 21.4162C14 18.9882 14.9429 16.6552 16.6281 14.9317C18.3141 13.2073 20.6057 12.2344 23 12.2344C25.3943 12.2344 27.6859 13.2073 29.3719 14.9317C31.0571 16.6552 32 18.9882 32 21.4162C32 24.9916 29.7751 28.1874 27.7336 30.3912C26.6938 31.5138 25.6572 32.4264 24.8815 33.0581C24.4929 33.3745 24.1678 33.6221 23.9379 33.7919C23.8229 33.8769 23.7316 33.9425 23.6679 33.9876C23.636 34.0102 23.611 34.0276 23.5935 34.0398L23.5727 34.0542L23.5666 34.0584L23.5646 34.0598C23.5643 34.0599 23.5633 34.0606 23 33.2344ZM23 33.2344L23.5633 34.0606C23.2235 34.2923 22.776 34.2919 22.4361 34.0602L23 33.2344Z" fill="#1D1D1F"/>
<path fill-rule="evenodd" clip-rule="evenodd" d="M23 19.2344C21.8954 19.2344 21 20.1298 21 21.2344C21 22.3389 21.8954 23.2344 23 23.2344C24.1046 23.2344 25 22.3389 25 21.2344C25 20.1298 24.1046 19.2344 23 19.2344ZM19 21.2344C19 19.0252 20.7909 17.2344 23 17.2344C25.2091 17.2344 27 19.0252 27 21.2344C27 23.4435 25.2091 25.2344 23 25.2344C20.7909 25.2344 19 23.4435 19 21.2344Z" fill="#1D1D1F"/>
</svg>
