<svg width="46" height="47" viewBox="0 0 46 47" fill="none" xmlns="http://www.w3.org/2000/svg">
<rect y="0.234375" width="46" height="46" rx="12" fill="white"/>
<path fill-rule="evenodd" clip-rule="evenodd" d="M15 18.2344C15.5523 18.2344 16 18.6821 16 19.2344V30.2344H30V19.2344C30 18.6821 30.4477 18.2344 31 18.2344C31.5523 18.2344 32 18.6821 32 19.2344V31.2344C32 31.7867 31.5523 32.2344 31 32.2344H15C14.4477 32.2344 14 31.7867 14 31.2344V19.2344C14 18.6821 14.4477 18.2344 15 18.2344Z" fill="#1D1D1F"/>
<path fill-rule="evenodd" clip-rule="evenodd" d="M12 15.2344C12 14.6821 12.4477 14.2344 13 14.2344H33C33.5523 14.2344 34 14.6821 34 15.2344V19.2344C34 19.7867 33.5523 20.2344 33 20.2344H13C12.4477 20.2344 12 19.7867 12 19.2344V15.2344ZM14 16.2344V18.2344H32V16.2344H14Z" fill="#1D1D1F"/>
<path fill-rule="evenodd" clip-rule="evenodd" d="M20 23.2344C20 22.6821 20.4477 22.2344 21 22.2344H25C25.5523 22.2344 26 22.6821 26 23.2344C26 23.7867 25.5523 24.2344 25 24.2344H21C20.4477 24.2344 20 23.7867 20 23.2344Z" fill="#1D1D1F"/>
</svg>
