<svg aria-hidden="true" style="position: absolute; width: 0; height: 0; overflow: hidden;" version="1.1" xmlns="http://www.w3.org/2000/svg" xmlns:xlink="http://www.w3.org/1999/xlink">
<defs>
<symbol id="facebook" viewBox="0 0 20 32">
<path  d="M6.668 30.286v-13.67h-4.6v-5.328h4.6v-3.929c0-4.559 2.785-7.042 6.852-7.042 1.948 0 3.623 0.145 4.111 0.21v4.765l-2.821 0.001c-2.212 0-2.64 1.051-2.64 2.594v3.401h5.276l-0.687 5.328h-4.589v13.67h-5.502z"></path>
</symbol>
<symbol id="github" viewBox="0 0 34 32">
<path d="M16.263 0.558c-8.839 0-15.951 7.111-15.951 15.951 0 7.045 4.586 13.026 10.899 15.153 0.798 0.133 1.063-0.332 1.063-0.798 0-0.399 0-1.396 0-2.725-4.453 0.997-5.383-2.127-5.383-2.127-0.731-1.861-1.794-2.326-1.794-2.326-1.462-0.997 0.133-0.997 0.133-0.997 1.595 0.133 2.459 1.662 2.459 1.662 1.396 2.459 3.722 1.728 4.652 1.329 0.133-1.063 0.532-1.728 0.997-2.127-3.522-0.399-7.244-1.794-7.244-7.909 0-1.728 0.598-3.19 1.662-4.253-0.133-0.399-0.731-1.994 0.133-4.253 0 0 1.329-0.399 4.386 1.662 1.263-0.332 2.658-0.532 3.988-0.532s2.725 0.199 3.988 0.532c3.057-2.060 4.386-1.662 4.386-1.662 0.864 2.193 0.332 3.788 0.133 4.253 0.997 1.13 1.662 2.526 1.662 4.253 0 6.114-3.722 7.444-7.311 7.842 0.598 0.465 1.063 1.462 1.063 2.924 0 2.127 0 3.855 0 4.386 0 0.399 0.266 0.93 1.13 0.798 6.314-2.060 10.899-8.042 10.899-15.087 0-8.839-7.111-15.951-15.95-15.951z"></path>
</symbol>
<symbol id="instagram" viewBox="0 0 32 32">
<path d="M16.002 3.308c4.134 0 4.624 0.015 6.257 0.090 0.982 0.012 1.955 0.192 2.875 0.533 0.668 0.258 1.274 0.652 1.781 1.158s0.901 1.113 1.158 1.781c0.341 0.921 0.521 1.894 0.533 2.876 0.074 1.633 0.090 2.123 0.090 6.257s-0.015 4.624-0.090 6.257c-0.012 0.982-0.192 1.954-0.533 2.876-0.257 0.668-0.652 1.274-1.158 1.781s-1.113 0.901-1.781 1.158c-0.921 0.341-1.893 0.521-2.875 0.533-1.632 0.074-2.122 0.090-6.257 0.090s-4.625-0.015-6.257-0.090c-0.982-0.012-1.955-0.192-2.876-0.533-0.668-0.258-1.274-0.652-1.781-1.158s-0.901-1.113-1.158-1.781c-0.341-0.921-0.521-1.894-0.533-2.876-0.074-1.633-0.090-2.123-0.090-6.257s0.015-4.624 0.090-6.257c0.012-0.982 0.192-1.955 0.533-2.876 0.258-0.668 0.652-1.274 1.158-1.781s1.113-0.901 1.781-1.158c0.921-0.341 1.894-0.521 2.876-0.533 1.633-0.074 2.123-0.090 6.257-0.090zM16.002 0.518c-4.203 0-4.732 0.018-6.384 0.093-1.285 0.026-2.557 0.269-3.76 0.72-1.033 0.389-1.968 0.999-2.741 1.787-0.788 0.773-1.399 1.709-1.788 2.742-0.451 1.204-0.694 2.475-0.72 3.76-0.074 1.65-0.091 2.18-0.091 6.382s0.018 4.732 0.093 6.384c0.026 1.285 0.269 2.557 0.72 3.76 0.389 1.033 0.999 1.969 1.787 2.742 0.773 0.788 1.709 1.398 2.742 1.787 1.204 0.451 2.475 0.694 3.76 0.72 1.652 0.074 2.179 0.093 6.384 0.093s4.732-0.018 6.384-0.093c1.285-0.025 2.557-0.269 3.76-0.72 1.028-0.399 1.962-1.007 2.741-1.787s1.388-1.714 1.786-2.743c0.451-1.204 0.694-2.475 0.72-3.76 0.074-1.65 0.091-2.18 0.091-6.382s-0.018-4.732-0.093-6.384c-0.026-1.285-0.269-2.557-0.72-3.76-0.389-1.033-0.999-1.969-1.787-2.742-0.773-0.788-1.709-1.398-2.742-1.787-1.204-0.451-2.475-0.694-3.76-0.72-1.65-0.074-2.18-0.091-6.382-0.091z"></path>
<path d="M16.005 8.054c-1.573 0-3.11 0.466-4.418 1.34s-2.327 2.116-2.929 3.568c-0.602 1.453-0.759 3.052-0.452 4.594s1.064 2.959 2.176 4.071c1.112 1.112 2.529 1.869 4.071 2.176s3.141 0.149 4.594-0.452c1.453-0.602 2.695-1.621 3.568-2.929s1.34-2.845 1.34-4.418c0-2.109-0.838-4.131-2.329-5.622s-3.514-2.329-5.622-2.329zM16.005 21.166c-1.021 0-2.019-0.303-2.867-0.87s-1.51-1.373-1.901-2.316c-0.391-0.943-0.493-1.981-0.294-2.982s0.691-1.921 1.413-2.643c0.722-0.722 1.641-1.213 2.643-1.413s2.039-0.097 2.982 0.294c0.943 0.391 1.749 1.052 2.316 1.901s0.87 1.847 0.87 2.867c0 1.369-0.544 2.682-1.512 3.65s-2.281 1.512-3.65 1.512z"></path>
<path d="M24.269 9.596c1.026 0 1.858-0.832 1.858-1.858s-0.832-1.858-1.858-1.858c-1.026 0-1.858 0.832-1.858 1.858s0.832 1.858 1.858 1.858z"></path>
</symbol>
<symbol id="twitter" viewBox="0 0 38 32">
<path d="M35.863 6.346c-1.341 0.596-2.756 0.968-4.246 1.192 1.49-0.894 2.682-2.309 3.203-4.023-1.415 0.819-2.98 1.415-4.693 1.788-1.341-1.415-3.278-2.309-5.364-2.309-4.023 0-7.3 3.278-7.3 7.3 0 0.596 0.075 1.117 0.224 1.639-6.034-0.298-11.472-3.203-15.122-7.673-0.596 1.117-0.968 2.309-0.968 3.65 0 2.533 1.266 4.768 3.278 6.108-1.192-0.075-2.309-0.372-3.352-0.894v0.075c0 3.576 2.533 6.555 5.885 7.226-0.596 0.149-1.266 0.223-1.937 0.223-0.447 0-0.968-0.075-1.415-0.149 0.968 2.905 3.65 5.066 6.853 5.066-2.533 1.937-5.661 3.129-9.088 3.129-0.596 0-1.192 0-1.713-0.075 3.278 2.086 7.077 3.278 11.248 3.278 13.483 0 20.858-11.174 20.858-20.858 0-0.298 0-0.67 0-0.968 1.415-0.968 2.682-2.235 3.65-3.725z"></path>
</symbol>
<symbol id="star" viewBox="0 0 34 32">
<path d="M17.029 0.48l4.93 10.616 11.62 1.408-8.573 7.97 2.251 11.487-10.229-5.691-10.229 5.691 2.251-11.487-8.573-7.97 11.62-1.408 4.93-10.616z"></path>
</symbol>
</defs>
</svg>
