<svg width="46" height="47" viewBox="0 0 46 47" fill="none" xmlns="http://www.w3.org/2000/svg">
<rect y="0.234375" width="46" height="46" rx="12" fill="white"/>
<g clip-path="url(#clip0_4610_162361)">
<path fill-rule="evenodd" clip-rule="evenodd" d="M23 19.2344C20.7909 19.2344 19 21.0252 19 23.2344C19 25.4435 20.7909 27.2344 23 27.2344C25.2091 27.2344 27 25.4435 27 23.2344C27 21.0252 25.2091 19.2344 23 19.2344ZM17 23.2344C17 19.9207 19.6863 17.2344 23 17.2344C26.3137 17.2344 29 19.9207 29 23.2344C29 26.5481 26.3137 29.2344 23 29.2344C19.6863 29.2344 17 26.5481 17 23.2344Z" fill="#1D1D1F"/>
<path fill-rule="evenodd" clip-rule="evenodd" d="M23 11.2344C23.5523 11.2344 24 11.6821 24 12.2344V14.2344C24 14.7867 23.5523 15.2344 23 15.2344C22.4477 15.2344 22 14.7867 22 14.2344V12.2344C22 11.6821 22.4477 11.2344 23 11.2344Z" fill="#1D1D1F"/>
<path fill-rule="evenodd" clip-rule="evenodd" d="M23 31.2344C23.5523 31.2344 24 31.6821 24 32.2344V34.2344C24 34.7867 23.5523 35.2344 23 35.2344C22.4477 35.2344 22 34.7867 22 34.2344V32.2344C22 31.6821 22.4477 31.2344 23 31.2344Z" fill="#1D1D1F"/>
<path fill-rule="evenodd" clip-rule="evenodd" d="M14.5116 14.746C14.9022 14.3555 15.5353 14.3555 15.9259 14.746L17.3459 16.166C17.7364 16.5565 17.7364 17.1897 17.3459 17.5802C16.9553 17.9708 16.3222 17.9708 15.9316 17.5802L14.5116 16.1602C14.1211 15.7697 14.1211 15.1365 14.5116 14.746Z" fill="#1D1D1F"/>
<path fill-rule="evenodd" clip-rule="evenodd" d="M28.6523 28.8866C29.0428 28.4961 29.676 28.4961 30.0665 28.8866L31.4865 30.3066C31.877 30.6972 31.877 31.3303 31.4865 31.7209C31.096 32.1114 30.4628 32.1114 30.0723 31.7209L28.6523 30.3009C28.2617 29.9103 28.2617 29.2772 28.6523 28.8866Z" fill="#1D1D1F"/>
<path fill-rule="evenodd" clip-rule="evenodd" d="M11 23.2344C11 22.6821 11.4477 22.2344 12 22.2344H14C14.5523 22.2344 15 22.6821 15 23.2344C15 23.7867 14.5523 24.2344 14 24.2344H12C11.4477 24.2344 11 23.7867 11 23.2344Z" fill="#1D1D1F"/>
<path fill-rule="evenodd" clip-rule="evenodd" d="M31 23.2344C31 22.6821 31.4477 22.2344 32 22.2344H34C34.5523 22.2344 35 22.6821 35 23.2344C35 23.7867 34.5523 24.2344 34 24.2344H32C31.4477 24.2344 31 23.7867 31 23.2344Z" fill="#1D1D1F"/>
<path fill-rule="evenodd" clip-rule="evenodd" d="M17.3459 28.8866C17.7364 29.2772 17.7364 29.9103 17.3459 30.3009L15.9259 31.7209C15.5353 32.1114 14.9022 32.1114 14.5116 31.7209C14.1211 31.3303 14.1211 30.6972 14.5116 30.3066L15.9316 28.8866C16.3222 28.4961 16.9553 28.4961 17.3459 28.8866Z" fill="#1D1D1F"/>
<path fill-rule="evenodd" clip-rule="evenodd" d="M31.4865 14.746C31.877 15.1365 31.877 15.7697 31.4865 16.1602L30.0665 17.5802C29.676 17.9708 29.0428 17.9708 28.6523 17.5802C28.2617 17.1897 28.2617 16.5565 28.6523 16.166L30.0723 14.746C30.4628 14.3555 31.096 14.3555 31.4865 14.746Z" fill="#1D1D1F"/>
</g>
<defs>
<clipPath id="clip0_4610_162361">
<rect width="24" height="24" fill="white" transform="translate(11 11.2344)"/>
</clipPath>
</defs>
</svg>
